<svg width="190" height="265" viewBox="0 0 190 265" fill="none" xmlns="http://www.w3.org/2000/svg">
<path d="M64.0678 39.7098C65.4696 31.4617 73.1714 24.3442 78.5715 18.1712C82.1279 14.0241 85.7189 9.90656 89.3443 5.81972C90.8027 4.18552 93.3177 1.20914 94.9754 0C96.7454 2.47521 98.9373 4.51762 100.936 6.81028L113.86 21.6326C125.335 34.9018 126.135 36.1376 126.125 54.0949L126.026 78.81C126.009 81.9531 125.813 89.1524 126.147 91.926L126.361 92.0728C129.372 94.1199 135.596 96.7683 138.951 98.4237C147.671 102.798 156.431 107.09 165.232 111.298C172.525 114.775 180.104 117.476 184.793 124.564C190.314 132.911 189.332 141.537 189.4 151.069L162.588 151.044C159.356 151.034 150.701 151.152 148.058 150.552C142.798 149.329 137.98 146.672 134.139 142.876C132.132 140.846 130.458 138.512 129.178 135.961C128.372 134.383 126.879 130.875 126.596 129.137C125.743 123.892 125.946 117.531 125.968 112.195L126.043 100.934C126.079 98.2752 126.196 95.483 126.057 92.8424C124.13 90.9021 117.416 88.0113 114.802 86.7475L90.5784 74.8642C83.594 71.4975 75.2974 68.418 69.9933 62.6451C66.3787 58.7109 65.0702 54.8157 63.8964 49.7531C63.0318 47.1075 63.3356 42.3753 64.0678 39.7098Z" fill="#E9E8E3"/>
<path d="M94.9438 145.921C95.2476 146.163 95.6686 147.453 95.8306 147.907C97.1385 151.576 99.1044 154.221 101.112 157.451C107.071 167.036 115.296 174.194 125.208 179.481C126.96 180.416 129.639 181.474 131.518 182.268C129.845 184.499 127.062 186.611 125.058 188.624C106.19 207.581 99.9239 234.345 96.1661 259.919C95.8569 262.023 96.0421 262.795 94.288 264.088C93.2099 263.466 92.5922 256.797 92.3975 255.452C91.9092 252.124 91.3339 248.809 90.6724 245.51C86.7492 225.294 80.8776 207.852 67.2712 191.697C64.4137 188.305 60.8294 185.493 57.6735 182.402C59.69 181.259 63.0453 179.984 65.5815 178.591C74.7831 173.595 82.5779 166.364 88.2474 157.562C90.4619 154.165 92.7495 148.834 94.7862 146.128L94.9438 145.921Z" fill="#FF3301"/>
<path d="M0 151.072C0.287972 144.749 -0.396757 137.931 1.19972 131.781C2.90229 125.713 7.52937 119.778 13.079 116.761C17.6757 114.324 22.4278 112.173 27.1195 109.93C37.5286 104.955 47.7063 99.4732 58.2575 94.805C59.9588 94.0523 61.825 92.8839 63.4451 91.9384C63.3663 94.4622 63.3585 96.9872 63.4225 99.5113C63.9371 104.33 63.7219 110.127 63.794 114.96C63.8081 115.906 64.0934 116.956 64.1251 117.891C63.9745 117.111 64.0897 106.074 64.1103 106.031C64.3349 111.03 64.3225 118.862 64.1642 123.852C63.8385 124.367 63.8145 124.422 63.3935 124.848C62.8947 131.964 59.9096 138.049 54.787 143.031C50.9875 146.782 46.2068 149.383 40.9944 150.537C37.4596 151.346 30.2876 151.044 26.3082 151.066C17.539 151.127 8.76916 151.129 0 151.072Z" fill="#E9E8E3"/>
</svg>
